<?xml version="1.0" standalone="no"?>
<!DOCTYPE svg PUBLIC "-//W3C//DTD SVG 20010904//EN"
 "http://www.w3.org/TR/2001/REC-SVG-20010904/DTD/svg10.dtd">
<svg version="1.0" xmlns="http://www.w3.org/2000/svg"
 width="962.000000pt" height="962.000000pt" viewBox="0 0 962.000000 962.000000"
 preserveAspectRatio="xMidYMid meet">
<metadata>
Created by potrace 1.11, written by Peter Selinger 2001-2013
</metadata>
<g transform="translate(0.000000,962.000000) scale(0.100000,-0.100000)"
fill="#000000" stroke="none">
<path d="M0 4810 l0 -4810 480 0 480 0 42 28 c127 85 199 142 298 237 52 51
118 105 145 120 28 16 79 49 115 75 36 25 94 58 130 74 90 38 124 67 164 139
58 103 148 191 261 253 19 10 20 25 26 240 3 126 12 272 18 324 7 52 16 196
21 320 12 307 29 359 133 398 29 11 79 23 112 27 33 3 83 10 110 15 28 5 91
14 140 20 122 15 237 39 252 51 25 22 -3 240 -92 709 -19 96 -39 211 -45 255
-6 44 -16 107 -21 140 -5 33 -14 141 -19 240 -9 186 -24 265 -63 345 -27 56
-81 85 -187 101 -150 23 -199 64 -336 277 -145 226 -180 296 -199 407 -9 50
-34 166 -56 260 -68 282 -63 389 25 580 72 156 226 248 343 204 27 -10 103
-81 103 -97 0 -12 41 -34 73 -39 20 -3 33 1 43 14 11 15 15 15 23 4 6 -9 11
-10 15 -2 10 16 36 13 36 -4 0 -8 7 -15 15 -15 8 0 17 -11 21 -25 4 -15 13
-25 24 -25 23 0 76 -85 86 -136 4 -21 13 -45 21 -52 7 -7 13 -22 13 -32 0 -10
7 -20 15 -24 15 -5 18 -56 3 -56 -4 0 -8 -9 -8 -21 0 -21 0 -21 25 2 13 13 25
31 25 40 0 23 24 41 44 33 11 -4 16 -1 16 11 0 9 -4 13 -10 10 -19 -12 -10 20
10 38 22 18 29 91 10 102 -7 4 -6 13 1 26 5 11 10 30 9 42 -1 12 -1 24 0 27 1
3 3 22 4 42 2 21 10 46 19 55 10 11 13 24 8 33 -5 8 -7 26 -6 40 2 14 4 30 4
35 1 6 5 4 10 -4 7 -11 12 -4 20 25 14 49 14 67 1 59 -7 -4 -7 1 0 17 12 29
32 169 26 176 -3 2 4 16 14 30 28 34 26 50 -5 44 -14 -2 -25 0 -25 7 0 17 33
95 46 108 7 7 15 26 19 42 3 16 14 31 24 34 12 3 22 21 30 51 11 45 30 62 32
29 0 -10 5 -3 10 15 8 26 14 32 29 27 29 -9 63 30 55 63 -5 22 -4 24 9 13 13
-11 16 -11 16 2 0 9 14 38 30 64 17 26 28 53 25 61 -2 7 9 31 25 54 40 54 30
62 -16 12 l-36 -39 28 40 c15 22 52 63 81 91 29 29 53 56 53 61 0 5 17 29 37
54 21 24 31 39 23 33 -17 -13 -70 -27 -70 -19 0 12 78 78 108 90 17 8 32 20
32 28 0 8 7 17 15 20 8 4 21 21 28 39 8 18 33 46 55 62 23 16 42 32 42 36 0 4
6 8 13 7 32 -1 46 4 51 21 3 9 43 34 88 55 46 21 96 45 111 53 15 9 53 18 85
21 32 3 61 12 65 19 4 8 17 14 27 14 10 0 21 4 24 8 3 5 38 15 78 22 40 8 78
20 84 28 7 10 21 13 40 9 16 -3 44 1 63 9 18 8 44 14 56 14 12 0 28 7 36 16 9
11 22 14 45 9 20 -3 34 -1 36 6 4 13 46 18 193 21 55 2 105 6 111 10 6 4 33 1
60 -6 27 -7 55 -11 62 -8 7 2 21 -7 32 -21 22 -28 55 -27 77 2 9 11 15 13 20
5 5 -6 32 -13 62 -16 29 -3 56 -9 60 -14 3 -5 35 -9 71 -9 48 0 69 -4 82 -17
16 -16 49 -24 88 -20 8 1 56 4 106 7 82 4 95 3 140 -20 27 -14 56 -25 63 -25
8 0 27 -12 43 -27 24 -23 31 -25 53 -15 36 17 47 15 41 -6 -5 -14 2 -21 30
-31 19 -7 38 -10 41 -7 4 3 21 -10 40 -30 26 -29 42 -38 78 -42 25 -2 45 -9
45 -14 0 -5 4 -7 8 -4 5 3 20 -5 34 -17 14 -12 36 -29 49 -37 12 -8 34 -27 49
-41 15 -14 43 -33 63 -42 36 -18 169 -144 217 -206 14 -18 42 -51 62 -73 21
-22 35 -44 32 -49 -3 -5 0 -9 5 -9 6 0 22 -22 36 -50 14 -27 32 -50 39 -50 14
0 34 -31 111 -175 20 -38 49 -85 63 -104 24 -32 39 -88 47 -171 5 -57 27 -134
41 -146 10 -8 11 -19 5 -40 -13 -48 1 -128 24 -138 19 -8 20 -17 18 -80 -2
-52 1 -76 13 -91 10 -14 17 -16 22 -8 4 6 7 -50 7 -125 2 -467 6 -791 12 -820
6 -35 30 -53 42 -33 4 7 9 40 10 74 1 34 8 69 15 77 8 8 17 30 21 48 3 17 10
32 14 32 10 0 31 46 31 69 0 22 40 51 70 51 38 0 77 -28 109 -79 27 -41 34
-66 43 -144 19 -156 -6 -267 -113 -512 -27 -63 -32 -93 -34 -230 -1 -82 -8
-170 -14 -195 -25 -89 -219 -386 -281 -430 -32 -23 -68 -28 -116 -16 -31 7
-32 5 -47 -36 -46 -133 -96 -301 -92 -308 2 -4 35 -10 72 -14 37 -4 122 -16
188 -26 66 -11 179 -26 250 -35 109 -14 139 -22 185 -48 135 -75 225 -244 237
-447 l6 -99 471 5 c259 2 586 6 726 9 312 7 646 6 665 -2 13 -4 15 444 15
3531 l0 3536 -4810 0 -4810 0 0 -4810z m2994 1658 c-9 -67 -17 -98 -26 -104
-18 -12 -20 5 -3 40 9 19 14 40 11 45 -9 13 4 62 14 56 4 -3 6 -20 4 -37z
m-34 -138 c0 -5 -2 -10 -4 -10 -3 0 -8 5 -11 10 -3 6 -1 10 4 10 6 0 11 -4 11
-10z m4215 -179 c3 -5 1 -12 -5 -16 -5 -3 -10 1 -10 9 0 18 6 21 15 7z m-4245
-261 c0 -5 -4 -10 -10 -10 -5 0 -10 5 -10 10 0 6 5 10 10 10 6 0 10 -4 10 -10z"/>
<path d="M3145 6494 c0 -13 3 -24 8 -24 4 0 7 9 7 19 0 11 -3 22 -7 24 -5 3
-8 -6 -8 -19z"/>
<path d="M3170 6511 c0 -10 26 -9 36 2 4 4 -2 7 -14 7 -12 0 -22 -4 -22 -9z"/>
<path d="M3120 6438 c-34 -52 -41 -71 -30 -82 7 -7 10 -4 10 8 0 10 9 31 21
47 11 16 19 34 17 39 -2 6 -10 0 -18 -12z"/>
<path d="M3040 6358 c-8 -13 -18 -36 -21 -51 -5 -22 -2 -30 15 -39 16 -8 19
-8 9 2 -8 9 -8 21 3 47 19 45 15 73 -6 41z"/>
<path d="M3010 6251 c0 -5 5 -13 10 -16 6 -3 10 -2 10 4 0 5 -4 13 -10 16 -5
3 -10 2 -10 -4z"/>
<path d="M4520 6221 c22 -7 23 -9 7 -16 -9 -4 -31 -2 -48 5 -22 10 -33 10 -38
2 -4 -7 -39 -10 -97 -9 l-91 2 39 -17 c25 -11 37 -22 32 -29 -5 -9 -10 -7 -19
4 -7 10 -23 17 -36 17 -23 -1 -24 -1 -4 -15 11 -8 25 -18 30 -23 30 -25 125
-38 157 -21 12 7 26 5 43 -7 14 -9 25 -12 25 -6 0 21 54 21 83 1 17 -12 35
-18 47 -14 12 4 20 2 20 -4 0 -6 8 -11 18 -11 9 0 29 -11 44 -25 33 -30 48
-32 48 -6 0 18 2 19 28 5 15 -7 33 -14 40 -14 7 0 15 -7 18 -15 9 -21 19 -19
32 8 8 16 11 17 11 6 1 -9 8 -22 16 -29 13 -11 15 -8 15 14 0 14 -4 26 -10 26
-5 0 -10 10 -10 23 0 24 -35 53 -45 37 -11 -17 -41 -5 -79 32 -21 20 -44 34
-51 31 -8 -2 -28 3 -44 13 -24 14 -33 16 -43 6 -14 -14 -52 -16 -43 -2 7 12
-28 27 -81 34 -29 4 -33 3 -14 -3z m81 -37 c6 -8 17 -14 23 -14 6 -1 22 -10
35 -21 20 -16 22 -22 11 -29 -10 -6 -24 1 -46 24 -18 19 -44 36 -59 40 -14 4
-23 11 -20 15 7 12 41 2 56 -15z"/>
<path d="M6084 6053 c-21 -6 -64 -12 -95 -12 -43 -1 -60 -6 -74 -21 -10 -11
-23 -20 -29 -20 -6 0 -17 -9 -24 -20 -7 -12 -24 -25 -37 -30 -14 -5 -25 -15
-24 -22 0 -10 2 -10 6 0 10 26 24 11 18 -19 -7 -29 -5 -31 13 -27 16 4 19 2
15 -11 -4 -12 -2 -11 9 3 12 16 23 18 61 13 26 -4 49 -2 52 3 10 16 35 12 35
-5 0 -8 8 -15 19 -15 10 0 24 7 31 15 7 8 24 15 37 15 14 0 38 9 54 21 l30 21
-7 -26 c-6 -24 -4 -26 24 -26 17 0 37 -3 45 -6 8 -3 21 2 30 10 21 22 37 20
37 -4 0 -12 7 -20 18 -20 9 0 37 -7 62 -16 30 -10 46 -12 48 -5 5 15 110 45
147 42 l30 -2 -37 36 c-29 27 -44 34 -68 32 -37 -4 -49 -14 -26 -23 42 -16
-19 -32 -71 -18 -29 8 -20 24 13 24 14 0 24 6 24 14 0 21 -27 38 -50 31 -29
-9 -58 3 -56 23 1 18 -11 19 -69 7 -25 -5 -27 -4 -12 5 9 6 17 15 17 20 0 16
-68 11 -98 -6 l-27 -16 24 21 c13 12 19 22 15 23 -31 5 -77 1 -110 -9z"/>
<path d="M2130 5732 c-83 -42 -118 -72 -147 -124 -38 -67 -50 -124 -59 -265
-5 -95 -4 -114 9 -119 8 -3 20 -25 26 -49 12 -46 28 -65 40 -46 4 7 6 42 4 79
-5 105 -3 156 6 165 13 13 33 -2 27 -19 -3 -8 1 -17 10 -21 8 -3 13 -11 10
-18 -7 -19 5 -27 21 -14 7 6 13 29 13 50 0 22 5 39 10 39 6 0 10 9 10 20 0 12
-5 17 -14 14 -9 -3 -20 7 -30 26 -13 27 -13 31 -1 26 10 -3 15 1 15 14 0 25
18 36 26 15 5 -12 17 1 44 47 21 35 52 78 69 97 37 42 39 63 6 85 -31 20 -51
20 -95 -2z m-75 -302 c-2 -16 0 -32 6 -35 5 -4 8 -16 8 -28 -1 -17 -2 -18 -6
-4 -2 9 -9 17 -14 17 -6 0 -7 5 -4 10 3 6 1 10 -5 10 -7 0 -8 6 -2 18 5 9 7
23 5 30 -3 6 0 12 5 12 6 0 9 -13 7 -30z"/>
<path d="M4130 5686 c-78 -17 -112 -26 -125 -36 -5 -4 -41 -19 -80 -34 -82
-31 -89 -35 -98 -59 -10 -26 13 -31 80 -18 70 14 231 32 293 33 39 0 131 -20
238 -53 18 -6 50 -9 72 -8 21 2 42 0 46 -4 4 -4 35 -7 68 -8 94 -1 257 -37
264 -59 2 -5 8 -10 13 -10 17 0 -20 57 -73 112 -56 58 -164 118 -249 138 -74
17 -375 21 -449 6z m491 -95 c21 -18 22 -21 9 -35 -8 -8 -32 -18 -52 -21 -42
-8 -48 3 -26 50 13 30 37 32 69 6z"/>
<path d="M5970 5479 c-75 -20 -106 -37 -167 -93 -47 -42 -43 -56 15 -56 26 0
121 -11 212 -25 120 -18 194 -23 270 -21 107 4 207 -13 240 -39 8 -7 26 -16
39 -20 14 -4 38 -16 55 -26 47 -29 71 -25 72 11 1 26 -9 39 -73 90 -146 118
-236 158 -413 185 -122 19 -159 18 -250 -6z m380 -123 c0 -3 -4 -8 -10 -11 -5
-3 -10 -1 -10 4 0 6 5 11 10 11 6 0 10 -2 10 -4z"/>
<path d="M2361 5471 c-15 -28 -14 -61 3 -61 20 0 38 26 34 51 -4 30 -24 35
-37 10z"/>
<path d="M4910 5389 c0 -5 5 -7 10 -4 6 3 10 8 10 11 0 2 -4 4 -10 4 -5 0 -10
-5 -10 -11z"/>
<path d="M4203 5373 c7 -10 47 -20 122 -29 22 -3 56 -10 75 -15 72 -19 314 -7
307 15 -2 7 -70 13 -198 17 -107 3 -221 10 -253 14 -38 5 -57 4 -53 -2z"/>
<path d="M5864 5219 c4 -27 16 -37 39 -32 12 3 19 2 14 -2 -10 -11 135 -79
188 -89 70 -13 79 -14 128 -15 31 -1 46 -5 45 -13 -2 -9 32 -13 127 -15 81 -1
121 1 105 6 -14 5 -55 9 -91 10 -96 1 -129 10 -129 32 0 11 -7 19 -17 19 -10
0 -45 9 -78 19 -33 11 -87 27 -120 36 -33 9 -85 23 -115 31 -95 27 -99 27 -96
13z"/>
<path d="M2445 5198 c-30 -18 -45 -35 -45 -53 0 -11 -7 -15 -22 -13 -11 2 -23
-3 -26 -11 -3 -10 2 -12 21 -7 19 4 28 0 41 -19 18 -27 45 -28 83 -4 19 12 21
21 14 102 -1 20 -35 23 -66 5z"/>
<path d="M2261 5181 c-57 -15 -74 -89 -57 -251 10 -98 16 -121 48 -167 35 -52
40 -55 72 -43 21 8 26 16 26 46 0 26 5 37 18 41 20 5 29 57 12 68 -5 3 -10 25
-10 49 0 29 -7 51 -21 67 l-20 24 21 17 22 18 -21 0 c-26 0 -57 65 -40 86 17
20 -19 52 -50 45z"/>
<path d="M7368 5038 c-8 -7 -27 -29 -41 -48 -23 -32 -25 -41 -20 -105 3 -38
11 -73 17 -77 7 -5 6 -8 -4 -8 -13 -1 -13 -2 0 -13 12 -9 15 -40 16 -143 1
-72 6 -140 12 -150 10 -18 11 -17 21 6 6 14 19 39 30 55 47 79 80 322 55 409
-21 76 -51 101 -86 74z"/>
<path d="M2490 4647 c0 -22 27 -57 43 -57 10 0 -5 64 -17 72 -19 13 -26 9 -26
-15z"/>
<path d="M4183 4452 c-13 -2 -23 -10 -23 -19 0 -8 -6 -13 -12 -10 -29 10 -297
-163 -338 -217 -31 -42 -40 -85 -29 -137 10 -46 29 -68 29 -34 0 9 12 20 26
25 29 11 63 48 64 68 0 18 60 122 71 123 20 3 25 5 52 23 15 10 27 24 27 31 0
8 9 17 20 20 11 4 32 17 46 30 14 13 29 25 32 27 12 6 66 68 61 71 -2 1 -14 1
-26 -1z"/>
<path d="M4517 4390 c6 -24 13 -29 86 -69 70 -39 136 -59 197 -61 25 0 50 -2
55 -2 6 -1 23 2 39 6 26 6 28 5 17 -8 -9 -10 -9 -16 -3 -16 6 0 32 -20 58 -45
25 -25 52 -45 60 -45 8 0 17 -13 21 -30 4 -23 11 -30 28 -30 13 0 25 4 27 8 2
5 46 3 98 -3 57 -8 104 -9 118 -4 13 5 36 9 51 9 15 0 32 5 37 10 6 6 24 11
40 11 16 0 73 0 127 0 85 0 106 4 153 26 30 14 56 29 59 33 10 16 -140 79
-205 87 -70 9 -101 3 -163 -34 -52 -31 -83 -35 -137 -17 -27 10 -60 13 -82 10
-50 -8 -131 4 -103 15 18 7 18 8 -3 8 -21 1 -23 5 -17 29 5 25 1 33 -27 54
-66 50 -191 70 -281 44 -82 -24 -153 -21 -206 9 -52 30 -50 30 -44 5z"/>
<path d="M5870 4250 c0 -5 5 -10 10 -10 6 0 10 5 10 10 0 6 -4 10 -10 10 -5 0
-10 -4 -10 -10z"/>
<path d="M7138 4229 c-9 -6 -9 -11 1 -22 10 -12 7 -17 -18 -28 -20 -9 -26 -16
-18 -21 9 -5 9 -10 0 -19 -9 -9 -7 -16 12 -30 29 -23 44 -23 72 -1 18 14 22
26 20 71 -2 52 -3 54 -30 55 -15 1 -33 -1 -39 -5z"/>
<path d="M6137 4214 c-3 -4 5 -28 18 -55 14 -27 25 -59 25 -71 0 -13 7 -36 16
-53 9 -16 27 -59 41 -95 14 -36 28 -69 33 -75 24 -30 49 -87 43 -101 -3 -9 -1
-19 5 -23 14 -9 15 -52 3 -116 -10 -59 -9 -64 11 -33 42 66 53 195 23 283 -23
67 -95 215 -105 215 -4 0 -11 11 -14 25 -4 14 -14 34 -24 44 -9 10 -25 28 -34
39 -18 22 -30 27 -41 16z"/>
<path d="M4817 4143 c-8 -8 35 -32 46 -25 11 5 -12 32 -28 32 -6 0 -15 -3 -18
-7z"/>
<path d="M3400 4101 c0 -22 5 -43 10 -46 6 -3 10 -16 10 -27 0 -32 32 -128 43
-128 20 0 -29 231 -50 238 -9 2 -13 -9 -13 -37z"/>
<path d="M5481 4089 c-19 -8 -21 -12 -11 -24 17 -21 27 -19 33 7 8 27 7 28
-22 17z"/>
<path d="M4014 3886 c-10 -26 22 -102 58 -136 18 -17 74 -70 123 -118 50 -48
108 -99 130 -113 102 -65 115 -75 115 -84 0 -14 58 -35 76 -28 10 4 12 0 8
-11 -5 -12 0 -16 23 -16 16 0 55 -13 87 -29 32 -17 79 -37 104 -45 70 -23 270
-67 326 -72 27 -3 52 -7 56 -9 4 -3 13 2 20 10 13 15 11 16 -32 19 -7 0 -34 8
-59 18 -26 9 -74 18 -108 19 -62 2 -101 19 -101 43 0 8 -7 17 -16 20 -8 3 -12
10 -9 16 3 5 -3 10 -15 10 -12 0 -19 4 -15 9 4 7 -30 70 -49 88 -2 2 -20 -4
-41 -12 -47 -20 -92 -11 -107 21 -13 29 -17 29 -58 7 -31 -18 -31 -18 -53 8
-12 14 -29 36 -37 48 -8 12 -25 21 -41 21 -46 0 -68 95 -31 139 l17 22 23 -21
23 -22 24 26 c25 27 49 33 60 16 10 -17 41 -11 60 10 16 17 26 20 64 14 25 -3
53 -13 62 -20 10 -9 37 -13 80 -12 39 1 82 -5 109 -15 25 -9 84 -21 131 -27
48 -6 101 -17 118 -26 35 -18 69 -19 159 -9 48 6 66 5 80 -7 10 -8 32 -13 52
-11 69 6 104 2 120 -12 12 -11 35 -15 75 -13 62 3 81 -10 92 -64 3 -17 10 -25
19 -21 11 4 14 -5 14 -36 0 -45 -17 -92 -47 -129 -25 -30 -95 -40 -129 -17
-20 13 -31 14 -64 4 -28 -9 -50 -9 -80 -1 -35 8 -41 8 -36 -4 3 -8 0 -14 -6
-14 -7 0 -22 -12 -33 -26 -18 -22 -31 -27 -90 -31 -184 -14 -56 -65 168 -67
49 -1 91 2 94 7 2 4 29 7 59 7 41 0 54 4 54 15 0 15 61 32 78 21 20 -12 255
206 287 265 14 25 11 98 -4 100 -3 0 -26 2 -51 4 -63 4 -160 27 -160 37 0 4
-7 8 -16 8 -9 0 -57 14 -107 30 -57 19 -94 27 -100 21 -6 -6 -20 -5 -38 1 -16
6 -42 7 -57 3 -15 -4 -23 -3 -19 1 14 15 -56 30 -87 19 -22 -7 -30 -7 -33 2
-4 10 -10 10 -25 2 -11 -6 -32 -8 -46 -4 -15 4 -56 7 -92 6 -41 -1 -75 4 -94
14 -15 8 -39 15 -52 15 -13 0 -24 5 -24 11 0 7 -10 9 -24 5 -14 -3 -28 -2 -31
4 -3 5 -20 10 -37 10 -18 0 -48 5 -67 11 -20 7 -43 14 -51 17 -8 2 -78 6 -155
8 -317 6 -438 18 -468 43 -7 5 -42 12 -79 16 -57 6 -69 5 -74 -9z"/>
<path d="M6763 3113 c-4 -9 -15 -25 -24 -34 -10 -10 -27 -35 -38 -57 -21 -42
-45 -157 -36 -172 3 -6 -2 -10 -12 -10 -11 0 -25 -6 -32 -12 -11 -11 -12 -10
-6 2 9 17 -45 -28 -58 -47 -4 -7 -16 -13 -26 -13 -10 0 -24 -7 -31 -15 -7 -9
-28 -23 -47 -32 -19 -8 -40 -28 -48 -42 -7 -15 -26 -36 -41 -47 -14 -10 -46
-37 -70 -59 -25 -22 -58 -51 -74 -65 -74 -62 -200 -194 -200 -210 0 -5 -9 -11
-20 -15 -11 -3 -28 -20 -37 -37 -10 -16 -45 -49 -78 -73 -33 -24 -68 -51 -77
-60 -10 -8 -22 -15 -28 -15 -5 0 -13 -6 -17 -13 -10 -16 -58 -37 -83 -37 -11
0 -20 -4 -20 -10 0 -14 -37 -13 -42 2 -3 8 -9 8 -24 0 -10 -6 -14 -12 -8 -12
7 0 14 -7 18 -15 5 -13 2 -13 -19 1 -17 11 -29 13 -38 7 -34 -28 -172 -62
-249 -63 -139 -2 -184 -6 -196 -17 -15 -14 -62 -18 -62 -5 0 4 -8 8 -17 9 -70
3 -137 13 -146 22 -6 6 -16 7 -27 1 -22 -12 -97 -5 -115 10 -7 6 -16 7 -19 2
-9 -14 -76 -1 -76 15 0 12 -3 13 -15 3 -11 -9 -22 -9 -52 1 -21 7 -43 17 -49
21 -7 5 -22 11 -33 13 -41 8 -96 30 -103 41 -4 7 -28 15 -52 18 -25 4 -59 18
-78 31 -18 14 -42 29 -53 35 -11 6 -32 18 -46 28 -14 9 -46 30 -70 46 -50 33
-78 57 -124 104 -17 17 -37 32 -43 32 -7 0 -12 5 -12 11 0 6 -8 8 -18 5 -14
-5 -18 -1 -18 16 1 13 -4 22 -10 21 -7 -1 -20 7 -29 17 -22 24 -43 26 -52 4
-4 -11 -13 -14 -29 -10 -14 4 -24 2 -24 -4 0 -6 -5 -8 -11 -4 -16 10 20 29 64
33 16 2 6 31 -11 31 -9 0 -23 9 -30 20 -7 11 -18 20 -26 20 -8 0 -20 10 -28
23 -15 22 -27 29 -98 60 -19 9 -45 29 -57 45 -12 16 -40 39 -64 51 -74 39 -95
4 -32 -55 21 -20 39 -30 43 -25 3 6 22 -2 43 -20 24 -20 45 -29 57 -26 11 3
18 1 15 -4 -3 -4 3 -17 15 -29 11 -11 20 -30 20 -41 0 -17 3 -19 13 -11 10 9
19 7 35 -4 25 -17 29 -34 8 -34 -8 0 -17 -9 -21 -19 -3 -10 -16 -22 -28 -26
l-22 -8 21 -4 c19 -4 21 -8 13 -40 -4 -21 -5 -41 -2 -47 4 -5 8 -34 9 -64 2
-31 8 -60 14 -66 5 -5 10 -18 10 -28 0 -10 11 -28 25 -40 28 -25 33 -48 9 -48
-13 0 -14 -3 -4 -15 7 -8 16 -13 20 -10 9 5 70 -54 70 -67 0 -5 -5 -8 -10 -8
-6 0 -14 -8 -17 -17 -13 -34 -26 -40 -67 -32 -23 4 -44 5 -48 3 -4 -2 -9 0
-13 6 -10 16 -55 12 -55 -5 0 -8 -5 -15 -11 -15 -5 0 -7 -5 -4 -10 4 -6 11 -8
16 -5 5 3 6 -1 3 -9 -4 -10 -1 -16 7 -16 23 0 139 -144 139 -172 0 -7 45 -59
100 -113 55 -55 125 -132 155 -172 90 -118 241 -263 274 -263 28 0 28 31 0 48
-12 8 -18 19 -15 28 4 10 -2 14 -19 14 -19 0 -23 4 -18 17 4 10 13 24 20 31
10 11 10 19 -2 48 -8 19 -11 34 -8 34 3 0 0 7 -7 15 -10 13 -9 15 9 15 12 0
19 5 16 10 -3 6 -19 10 -36 10 -31 0 -41 23 -13 34 19 7 34 -1 52 -26 9 -13
18 -16 25 -10 8 6 32 6 65 -1 46 -10 58 -9 83 5 27 16 29 16 43 -4 13 -19 18
-20 45 -8 26 10 35 10 56 -4 13 -9 42 -16 64 -16 22 0 42 -4 45 -9 3 -4 25
-12 48 -16 24 -4 48 -9 53 -11 6 -1 37 -8 70 -15 33 -6 65 -18 71 -25 6 -8 14
-11 17 -7 4 3 7 2 7 -4 0 -12 44 -33 71 -33 11 0 30 -5 42 -12 12 -7 28 -13
36 -14 72 -12 77 -32 9 -32 -46 1 -98 -16 -98 -31 0 -14 28 -33 40 -26 5 3 17
-1 26 -9 8 -9 21 -16 27 -16 7 0 27 -12 44 -28 17 -15 47 -40 67 -55 20 -16
34 -33 30 -38 -10 -16 17 -40 37 -34 13 4 19 1 19 -9 0 -9 8 -16 18 -16 9 0
26 -7 36 -15 11 -8 30 -15 41 -15 12 0 29 -8 38 -18 24 -26 151 -31 165 -6 9
16 10 15 17 -5 8 -25 25 -19 25 10 0 14 7 19 30 19 17 0 33 0 37 1 4 0 9 -4
11 -10 2 -6 -10 -11 -28 -11 -28 0 -31 -2 -20 -15 7 -8 17 -12 23 -8 6 4 26 6
45 5 30 -3 33 -1 30 25 -2 21 3 30 20 38 12 5 22 13 22 17 0 5 8 8 18 9 9 0
12 3 5 5 -9 4 -9 11 -1 30 12 27 34 27 32 0 -2 -24 13 -19 20 7 9 34 8 37 -14
37 -11 0 -20 5 -20 11 0 5 4 8 9 5 14 -9 62 34 59 52 -2 10 7 18 22 22 l25 7
-28 12 c-31 12 -28 31 4 31 11 0 17 4 14 10 -3 5 -16 10 -28 10 -15 0 -18 3
-9 8 15 10 24 50 12 57 -4 3 -32 0 -61 -6 -30 -6 -59 -11 -65 -13 -6 -1 -22
-9 -35 -17 -54 -34 -127 -62 -187 -70 -64 -9 -72 -8 -159 34 -24 11 -31 27
-12 27 14 0 6 25 -9 26 -7 1 -17 2 -22 3 -6 0 -8 12 -4 26 5 21 2 25 -23 30
-63 15 -63 15 -56 46 3 17 0 35 -7 44 -10 12 -9 15 6 16 11 1 22 1 27 0 4 0 7
5 7 13 0 9 -7 13 -19 11 -25 -5 -61 5 -61 16 0 5 8 9 17 9 9 0 24 6 32 14 19
16 129 56 155 56 15 0 16 3 6 15 -7 9 -8 15 -2 15 5 0 8 9 5 20 -5 19 -16 25
-37 21 -4 -1 -17 1 -29 5 -18 6 -19 7 -4 16 10 5 21 7 26 3 13 -7 63 13 57 23
-3 5 27 21 67 36 40 16 79 34 87 41 8 7 29 15 45 19 17 4 53 19 82 33 43 21
55 24 67 14 8 -7 20 -10 26 -6 5 3 10 -1 10 -10 0 -9 4 -14 8 -11 4 2 14 1 22
-4 11 -7 9 -11 -11 -20 -30 -14 -37 -60 -8 -60 10 0 19 4 19 9 0 13 91 101
105 101 16 0 27 27 15 35 -6 4 -10 -1 -10 -10 0 -13 -6 -16 -24 -11 -18 4 -28
1 -36 -11 -8 -13 -13 -14 -16 -5 -3 6 -10 10 -14 7 -5 -3 -14 4 -20 15 -10 18
-7 25 16 45 15 13 31 22 35 19 5 -2 13 4 18 15 7 13 17 17 31 14 13 -4 20 -1
18 7 -4 15 196 120 229 120 10 0 43 15 73 34 26 17 80 18 80 2 0 -8 7 -19 15
-24 13 -7 11 -11 -10 -22 -28 -15 -33 -29 -10 -31 8 -1 21 -2 27 -3 16 -1 24
-36 9 -36 -22 0 -10 -21 22 -40 31 -18 34 -25 36 -71 1 -29 4 -56 7 -61 3 -5
1 -14 -4 -21 -5 -7 -12 -25 -16 -41 -4 -15 -12 -34 -19 -42 -27 -30 -37 -43
-37 -49 0 -3 -14 -19 -31 -34 -23 -22 -27 -30 -16 -34 8 -3 19 -1 24 4 5 5 21
1 39 -10 48 -29 51 -99 6 -140 -20 -19 -40 -50 -48 -73 -4 -10 -14 -18 -23
-18 -14 0 -14 -2 -1 -10 9 -6 11 -10 3 -10 -7 0 -10 -7 -7 -15 3 -8 -4 -26
-15 -41 -12 -15 -21 -36 -21 -47 0 -11 -9 -28 -20 -37 -38 -33 -80 -93 -80
-114 0 -11 -14 -34 -30 -50 -30 -29 -39 -56 -20 -56 6 0 10 -5 10 -12 0 -9 -3
-9 -12 0 -7 7 -19 12 -28 12 -12 -1 -12 -3 4 -15 22 -17 11 -39 -16 -32 -18 5
-36 -5 -73 -41 -8 -6 -18 -12 -23 -12 -6 0 -12 -7 -16 -15 -3 -9 0 -15 8 -15
13 0 28 -23 30 -44 1 -5 9 -10 19 -12 13 -2 17 2 13 12 -3 8 -1 14 4 14 16 0
11 -28 -6 -38 -14 -8 -14 -10 1 -22 18 -15 31 -6 37 25 2 11 10 19 16 17 7 -1
12 2 12 8 0 5 7 10 16 10 8 0 12 5 9 11 -7 11 43 59 62 59 7 0 16 6 20 13 4 6
33 31 63 53 81 61 133 116 195 209 58 87 124 159 217 235 31 25 65 59 77 76
12 17 47 60 77 95 31 35 76 95 102 133 93 137 105 152 152 189 27 20 55 37 64
37 9 0 16 7 16 15 0 10 10 15 34 15 48 0 61 21 60 101 0 49 -5 73 -17 87 -9
10 -17 24 -17 30 0 7 -4 12 -8 12 -4 0 -6 16 -4 35 3 27 0 36 -14 41 -11 4
-27 14 -36 22 -17 14 -16 16 2 42 11 16 23 43 26 62 l5 33 -16 -25 c-10 -14
-30 -35 -45 -47 l-28 -22 -23 47 c-24 48 -39 65 -48 56 -3 -3 1 -9 9 -14 13
-8 12 -10 -2 -10 -18 0 -24 28 -21 103 1 15 -4 27 -9 27 -7 0 -9 41 -6 116 3
90 1 117 -9 121 -7 3 -13 11 -13 18 0 8 -8 11 -19 8 -15 -4 -19 3 -24 35 -4
21 -16 47 -27 57 -11 10 -20 26 -20 37 0 10 -17 41 -37 69 -31 44 -35 54 -25
70 11 17 9 21 -13 29 -15 6 -34 10 -43 10 -9 0 -24 5 -32 10 -12 7 -8 10 15
10 29 1 29 1 11 15 -26 20 -45 19 -53 -2z m467 -904 c0 -11 -4 -18 -10 -14 -5
3 -7 12 -3 20 7 21 13 19 13 -6z m-3430 -289 c12 -8 9 -10 -13 -10 -16 0 -26
4 -22 10 8 12 16 12 35 0z m838 -489 c3 -9 -7 -11 -34 -9 -49 4 -55 23 -7 22
20 -1 39 -7 41 -13z m62 9 c0 -5 -2 -10 -4 -10 -3 0 -8 5 -11 10 -3 6 -1 10 4
10 6 0 11 -4 11 -10z m190 -44 c0 -3 -4 -8 -10 -11 -5 -3 -10 -1 -10 4 0 6 5
11 10 11 6 0 10 -2 10 -4z m367 -172 c-3 -3 -12 -4 -19 -1 -8 3 -5 6 6 6 11 1
17 -2 13 -5z m827 -396 c-3 -4 -12 -8 -20 -8 -8 0 -13 4 -10 8 3 5 12 9 20 9
8 0 13 -4 10 -9z"/>
<path d="M7409 2845 c-1 -60 -2 -119 -1 -130 2 -11 4 -58 5 -105 2 -72 -1 -92
-21 -129 -28 -54 -23 -86 9 -52 11 12 18 28 16 36 -3 7 8 28 24 46 16 18 29
36 29 40 0 4 10 25 23 46 42 71 65 263 32 263 -8 0 -15 4 -15 9 0 5 -20 19
-44 31 -25 12 -47 29 -49 38 -3 9 -6 -32 -8 -93z"/>
<path d="M7402 2380 c14 -22 24 -19 15 5 -4 8 -11 15 -17 15 -6 0 -6 -7 2 -20z"/>
<path d="M3621 2293 c0 -25 1 -26 9 -8 12 27 12 35 0 35 -5 0 -10 -12 -9 -27z"/>
<path d="M7434 2285 c29 -171 31 -232 10 -415 -5 -42 -4 -52 6 -44 6 6 14 31
17 55 4 24 11 53 18 64 35 58 18 344 -20 332 -5 -2 -15 3 -22 12 -11 14 -12
14 -9 -4z"/>
<path d="M2959 2003 c-13 -14 -34 -29 -47 -34 -12 -5 -26 -19 -31 -32 -5 -12
-16 -29 -25 -36 -24 -20 -56 -140 -56 -212 0 -78 29 -175 70 -234 17 -24 34
-52 38 -62 12 -29 120 -189 137 -203 8 -7 15 -18 15 -25 0 -6 8 -20 19 -29 18
-16 19 -15 30 29 7 29 26 62 53 91 22 24 38 47 34 51 -4 4 -26 2 -49 -4 -23
-6 -43 -10 -45 -8 -6 6 93 100 103 97 10 -4 -17 30 -53 66 -13 12 -34 46 -48
76 -31 68 -25 101 26 141 39 31 58 80 52 133 -2 13 2 30 9 38 20 24 -35 73
-85 76 -34 2 -43 8 -65 44 -38 61 -54 68 -82 37z m121 -517 c0 -12 9 -28 20
-36 11 -8 20 -23 20 -33 0 -9 7 -20 15 -23 8 -4 12 -10 9 -15 -10 -17 -33 -9
-67 26 -28 29 -34 42 -32 73 3 45 2 43 20 36 8 -4 15 -16 15 -28z"/>
<path d="M6315 1991 c-3 -5 -1 -12 5 -16 5 -3 10 1 10 9 0 18 -6 21 -15 7z"/>
<path d="M6270 1971 c0 -17 18 -21 24 -6 3 9 0 15 -9 15 -8 0 -15 -4 -15 -9z"/>
<path d="M5940 1849 c0 -5 5 -7 10 -4 6 3 10 8 10 11 0 2 -4 4 -10 4 -5 0 -10
-5 -10 -11z"/>
<path d="M5826 1773 c-11 -11 -6 -23 9 -23 8 0 15 4 15 9 0 13 -16 22 -24 14z"/>
<path d="M5820 1680 c0 -5 7 -10 16 -10 8 0 12 5 9 10 -3 6 -10 10 -16 10 -5
0 -9 -4 -9 -10z"/>
<path d="M4300 1299 c0 -5 5 -7 10 -4 6 3 10 8 10 11 0 2 -4 4 -10 4 -5 0 -10
-5 -10 -11z"/>
<path d="M4250 1259 c0 -5 5 -7 10 -4 6 3 10 8 10 11 0 2 -4 4 -10 4 -5 0 -10
-5 -10 -11z"/>
<path d="M4300 1150 c0 -5 5 -10 11 -10 5 0 7 5 4 10 -3 6 -8 10 -11 10 -2 0
-4 -4 -4 -10z"/>
<path d="M4331 1122 c-1 -24 19 -38 41 -29 8 4 5 8 -9 12 -12 4 -24 14 -26 24
-3 11 -5 8 -6 -7z"/>
<path d="M5928 873 c7 -3 16 -2 19 1 4 3 -2 6 -13 5 -11 0 -14 -3 -6 -6z"/>
<path d="M5999 742 c-3 -30 -11 -49 -30 -75 l-22 -30 32 6 c22 5 30 3 25 -4
-4 -7 -2 -10 5 -8 7 3 12 8 11 13 -1 5 4 13 12 17 10 7 10 9 0 9 -10 0 -10 5
-2 20 7 13 7 20 1 20 -6 0 -8 6 -5 14 3 7 -2 16 -10 19 -9 4 -16 3 -17 -1z"/>
<path d="M5950 710 c0 -5 4 -10 9 -10 6 0 13 5 16 10 3 6 -1 10 -9 10 -9 0
-16 -4 -16 -10z"/>
<path d="M5737 200 c-5 -20 -10 -22 -42 -16 -25 5 -35 3 -33 -5 2 -6 -3 -14
-11 -17 -9 -3 -12 0 -9 10 5 11 -1 13 -22 10 -31 -4 -35 -28 -7 -44 20 -11 22
-34 5 -41 -8 -4 -7 -6 3 -6 19 -1 32 -27 23 -43 -3 -5 -17 -7 -30 -4 -28 7
-31 -5 -8 -29 12 -12 32 -15 83 -13 l66 3 5 63 c3 34 2 70 -1 80 -4 9 -3 19 2
22 4 3 2 16 -5 29 l-13 23 -6 -22z"/>
<path d="M9335 143 c-64 -7 -66 -23 -3 -23 31 0 60 -4 63 -10 7 -11 108 -13
179 -4 51 7 66 34 19 34 -16 1 -56 3 -91 6 -50 3 -64 1 -68 -11 -8 -19 -30
-19 -38 0 -3 8 -9 14 -13 13 -4 -1 -26 -3 -48 -5z"/>
</g>
</svg>
